# xmcd
#
# Track frame offsets:
#	150
#	12755
#	24237
#	36155
#	48972
#	60832
#	73820
#	86720
#	99005
#	111460
#	124517
#	136412
#	149637
#	161172
#	173035
#	185152
#	198520
#	210325
#
# Disc length: 2954 seconds
#
# Revision: 2
# Processed by: cddbd v1.5.2PL0 Copyright (c) Steve Scherf et al.
# Submitted via: audiograbber 1.83.01
#
DISCID=f80b8812
DTITLE="Champion" Jack Dupree - Junker's Blues - The Blues Collection 44
DYEAR=1996
DGENRE=Blues
TTITLE0=Morning Tea
TTITLE1=Chain Gang Blues
TTITLE2=Big Time Mama
TTITLE3=Warehouse Man Blues
TTITLE4=Jackie P. Blues
TTITLE5=Black Woman Swing
TTITLE6=Dupree Shake Dance
TTITLE7=Junker's Blues
TTITLE8=All Alone Blues
TTITLE9=Angola Blues
TTITLE10=Bad Health Blues
TTITLE11=Weed Head Woman
TTITLE12=Heavy Heart Blues
TTITLE13=Cabbage Greens
TTITLE14=How Long Blues
TTITLE15=Mean Ole 'Frisco
TTITLE16=Bad Whiskey And Bad Women
TTITLE17=Bus Station Blues
EXTD=
EXTT0=
EXTT1=
EXTT2=
EXTT3=
EXTT4=
EXTT5=
EXTT6=
EXTT7=
EXTT8=
EXTT9=
EXTT10=
EXTT11=
EXTT12=
EXTT13=
EXTT14=
EXTT15=
EXTT16=
EXTT17=
PLAYORDER=
